<svg xmlns="http://www.w3.org/2000/svg" width="600" height="111" viewBox="0 0 600 111"><style>.a{fill:#007A4A;}.b{fill:#0B3F5E;}</style><title>  GUARDIAN_LOGO_PRIMARY_RGB_NAVY_TEXT</title><desc>  Created with Sketch.</desc><g fill="none"><path d="M36.5 52.1L36.5 52.1C26.7 52.1 18.7 44.1 18.7 34.2 18.7 24.3 26.7 16.2 36.5 16.2 36.7 16.2 36.8 16.2 37 16.2L37.1 16.2C37.4 16.3 37.8 16.3 38.1 16.3 39.2 16.4 40.3 16.6 41.3 16.9 48.8 19 54.3 26 54.3 34.2 54.3 43.4 47.4 51 38.5 52 38.4 52 38.2 52 38.1 52.1L38.1 52.1C37.8 52.1 37.5 52.1 37.2 52.1 37.1 52.1 36.9 52.1 36.8 52.1 36.7 52.1 36.6 52.1 36.5 52.1M75.4 16.2L75.4 0.5C75.4 0.5 35.8 0.5 35.5 0.5 31.5 0.6 27.6 1.5 23.9 3 18.8 5.1 14.3 8.4 10.8 12.7 7.4 17 5 22 3.9 27.3 2.8 32.4 3 37.7 4.3 42.8 5.5 47.4 7.7 51.8 10.7 55.5 13.9 59.4 18 62.6 22.5 64.7 27.5 67 33.1 68.1 38.5 67.8 42.5 67.5 46.4 66.5 49.9 65 50 64.9 50.1 64.9 50.1 64.9 50.2 64.9 50.2 64.8 50.3 64.8 50.7 64.6 51 64.4 51.4 64.3 52.3 63.8 53.2 63.3 54.1 62.8 54.3 62.6 54.6 62.5 54.8 62.3 54.8 62.3 54.9 62.3 54.9 62.2 54.9 62.2 54.9 62.2 54.9 62.2 54.9 62.2 54.9 62.2 55 62.2 55 62.2 55 62.2 55 62.2 55.3 61.9 55.7 61.7 56 61.5 59.2 59.1 62.1 56.2 64.3 52.8 64.8 52 65.3 51.3 65.7 50.4 67.4 47.3 68.6 43.8 69.3 40.2 70.3 34.7 69.9 29 68.2 23.7 68 23.1 67.8 22.6 67.6 22 67 20.3 66.2 18.7 65.3 17.2 65.2 17 64.8 16.5 64.7 16.2L75.4 16.2" fill="#03A765"/><path d="M74 73.7C74 94.2 57.4 111 37 111 16.6 111 0 94.2 0 73.7 0 66.3 2.1 59.4 5.8 53.6 9.4 59.6 13.5 63 17.4 65.2 16.3 67.8 15.7 70.7 15.7 73.7 15.7 85.5 25.2 95.2 37 95.2 48.7 95.2 58.3 85.5 58.3 73.7 58.3 69.6 57.2 65.9 55.3 62.6 55.2 62.5 55.1 62.3 55 62.2 51.2 56.2 44.6 52.2 37.1 52.1 37.1 52.1 36.9 52.1 36.8 52.1L36.8 52.1C36.6 52.1 36.4 52.1 36.3 52.1 28.8 52.1 22.4 47.3 19.9 40.6 25 37.9 30.8 36.3 37 36.3 42.3 36.3 47.3 37.5 51.9 39.5 52.4 39.7 52.8 39.9 53.3 40.1 57.8 42.4 61.8 45.6 65.1 49.4 65.3 49.7 65.6 50 65.8 50.3 70.9 56.7 74 64.8 74 73.7" fill="#008EB1"/><path d="M68.2 23.7C61.6 20.7 50.6 18.2 41.3 16.9 40.3 16.6 39.2 16.4 38.1 16.3 37.8 16.3 37.4 16.3 37.1 16.2L64.7 16.2C64.8 16.5 65.2 17 65.3 17.2 66.2 18.7 67 20.3 67.6 22 67.8 22.6 68 23.1 68.2 23.7" class="a"/><path d="M55 62.2C55 62.2 55 62.2 55 62.2 54.9 62.2 54.9 62.2 54.9 62.2 54.9 62.2 54.9 62.2 54.9 62.2 54.9 62.3 54.8 62.3 54.8 62.3 54.6 62.5 54.3 62.6 54.1 62.8 53.2 63.3 52.3 63.8 51.4 64.3 51 64.5 50.7 64.6 50.3 64.8 48.5 60.5 43.6 54.9 37.2 52.3 37.1 52.2 37 52.2 36.8 52.1 36.8 52.1 37.2 52.1 37.2 52.1 44.7 52.2 51.3 56.2 55 62.2" class="a"/><polygon points="434.7 95.1 450.6 95.1 450.6 39.7 434.7 39.7" class="b"/><polygon points="434.7 32.1 450.6 32.1 450.6 16 434.7 16" class="b"/><path d="M600 45.3C600 49.1 596.9 51.9 593.2 51.9 589.6 51.9 586.5 49.1 586.5 45.3 586.5 41.5 589.6 38.6 593.2 38.6 596.9 38.6 600 41.5 600 45.3M598.5 45.3C598.5 42.3 596 39.9 593.2 39.9 590.4 39.9 587.9 42.3 587.9 45.3 587.9 48.2 590.4 50.5 593.2 50.5 596 50.5 598.5 48.2 598.5 45.3M594.5 46L596.1 48.2 594.7 48.2 593.2 46.2 592.1 46.2 592.1 48.2 591 48.2 591 42 593.6 42C594.9 42 595.9 42.9 595.9 44.1 595.9 45.1 595.3 45.8 594.5 46M593.5 45.2C594.3 45.2 594.8 44.8 594.8 44.1 594.8 43.5 594.3 43.1 593.5 43.1L592.1 43.1 592.1 45.2 593.5 45.2" class="b"/><path d="M151.1 52.1L151.1 67.3 169.5 67.3C166.8 74.6 159.6 80.8 149.1 80.8 134.2 80.8 125 69.7 125 56.8 125 40.7 135.2 30.7 149.7 30.7 155.6 30.7 163.4 32.4 167.9 39.7L186.3 39.7C180.6 23.1 165.3 14.9 149.4 14.9 126.4 14.9 108.2 32 108.2 56.9 108.2 78.6 125.2 96.7 149 96.7 159.7 96.7 167.7 93.1 173.1 87.4L173.1 95.1 188.3 95.1 188.3 52.1 151.1 52.1" class="b"/><path d="M236.6 75.4C232.9 79.9 228.5 82.3 224.5 82.3 217.1 82.3 212.7 77.6 212.7 68.8L212.7 39.8 196.8 39.8 196.8 70.3C196.8 86.3 206.4 96.9 220.9 96.9 227 96.9 232.1 94.8 236.6 91.2L236.6 95.1 252.5 95.1 252.5 39.8 236.6 39.8 236.6 75.4" class="b"/><path d="M302.2 76.3C298.6 81 294 82.6 289.3 82.6 280.9 82.6 275.1 75.6 275.1 67.5 275.1 59.3 280.9 52.1 289.3 52.1 294 52.1 298.6 53.7 302.2 58.6L302.2 76.3ZM302.2 43C298 40.2 292.8 38.6 286.6 38.6 271.5 38.6 259.3 51.2 259.3 67.5 259.3 83.6 271.5 96.3 286.6 96.3 292.8 96.3 298 94.7 302.2 91.9L302.2 95.1 318.1 95.1 318.1 39.8 302.2 39.8 302.2 43Z" class="b"/><path d="M343.9 39.8L328 39.8 328 95.1 343.9 95.1 343.9 62.1C348.5 57 354.6 54.4 363.2 54.1L363.2 38.8C355 38.8 348.9 41.4 343.9 46L343.9 39.8" class="b"/><path d="M407.6 76.3C404 81.1 399.3 82.8 394.6 82.8 386.3 82.8 380.4 75.6 380.4 67.4 380.4 59.3 386.3 52.2 394.6 52.2 399.3 52.2 404 53.9 407.6 58.6L407.6 76.3ZM407.6 43C403.3 40.2 398.2 38.6 392 38.6 376.9 38.6 364.6 51.3 364.6 67.4 364.6 83.7 376.9 96.3 392 96.3 398.2 96.3 403.3 94.7 407.6 91.9L407.6 95.1 423.5 95.1 423.5 16 407.6 16 407.6 43Z" class="b"/><path d="M501 76.3C497.4 81 492.7 82.6 488 82.6 479.7 82.6 473.8 75.6 473.8 67.5 473.8 59.3 479.7 52.1 488 52.1 492.7 52.1 497.4 53.7 501 58.6L501 76.3ZM501 43C496.7 40.2 491.6 38.6 485.4 38.6 470.3 38.6 458 51.2 458 67.5 458 83.6 470.3 96.3 485.4 96.3 491.6 96.3 496.7 94.7 501 91.9L501 95.1 516.9 95.1 516.9 39.8 501 39.8 501 43Z" class="b"/><path d="M557.9 38C551.7 38 546.7 40.1 542.2 43.7L542.2 39.8 526.3 39.8 526.3 95.1 542.2 95.1 542.2 59.5C545.9 55 550.2 52.6 554.3 52.6 561.7 52.6 566 57.3 566 66.1L566 95.1 582 95.1 582 64.7C582 48.5 572.3 38 557.9 38" class="b"/></g></svg>